<?xml version="1.0" encoding="UTF-8"?> <svg xmlns="http://www.w3.org/2000/svg" viewBox="0 0 45.42 40.01"><defs><style>.cls-1{fill:none;stroke:#004028;stroke-linejoin:round;stroke-width:2px;}</style></defs><g id="Layer_2" data-name="Layer 2"><g id="TEXT"><polyline class="cls-1" points="41.83 6.91 35.93 20.56 44.41 20.56 37.77 34.95"></polyline><polyline class="cls-1" points="17.48 6.54 14.89 13.92 30.39 13.92"></polyline><path class="cls-1" d="M30.76,35H17.11L16,39,6,38.27s-.93-12.91.46-17.34L6.77,19H3.91A2.91,2.91,0,0,1,1,16.12H1a2.9,2.9,0,0,1,2.91-2.9H8.85l.41-.6L13.42,1H42.2"></path><path class="cls-1" d="M12.82,20a1.51,1.51,0,0,1,.89-.45,7.63,7.63,0,0,1,5.41,1c1.29.79,3.81,2.7,2.6,4.49-1.32,2-7.43.6-8.44-1.21C12.7,22.81,12,20.87,12.82,20Z"></path></g></g></svg> 