<?xml version="1.0" encoding="UTF-8"?> <svg xmlns="http://www.w3.org/2000/svg" viewBox="0 0 54.09 49.45"><defs><style>.cls-1{fill:none;stroke:#004028;stroke-linecap:round;stroke-linejoin:round;stroke-width:2px;}</style></defs><g id="Layer_2" data-name="Layer 2"><g id="TEXT"><path class="cls-1" d="M22.65,32.43V22.55a.82.82,0,0,1,.82-.82h7a.82.82,0,0,1,.82.82v9.88"></path><path class="cls-1" d="M8,28.1s4.82-.1,7.29.82,4.21,3.6,9,3.6h5.95s5.24-.31,4.93,5"></path><path class="cls-1" d="M18.32,36.63l19.93,1.43,10.37-6.77s2.46-1.54,3.9.2a2.49,2.49,0,0,1-.31,3.39l-11,10A3.33,3.33,0,0,1,38.76,46c-1.85.21-17.15,2.47-17.15,2.47a8.4,8.4,0,0,1-2.78-.31C17.7,47.72,8.05,44,8.05,44"></path><rect class="cls-1" x="1" y="24.81" width="6.82" height="22.32" rx="0.82"></rect><line class="cls-1" x1="41.23" y1="35.77" x2="41.23" y2="14.68"></line><line class="cls-1" x1="12.76" y1="27.75" x2="12.76" y2="14.28"></line><polyline class="cls-1" points="9.11 17.84 26.97 1 44.83 17.84"></polyline></g></g></svg> 