<?xml version="1.0" encoding="UTF-8"?> <svg xmlns="http://www.w3.org/2000/svg" viewBox="0 0 71.41 53.23"><defs><style>.cls-1{fill:#004028;}</style></defs><g id="Layer_2" data-name="Layer 2"><g id="TEXT"><path class="cls-1" d="M10,43.56a4.52,4.52,0,0,0-3.44-1.72,4.86,4.86,0,0,0,0,9.71,4.65,4.65,0,0,0,4.35-3.14H5V46.73h8a6.48,6.48,0,1,1-6.52-6.58,6.45,6.45,0,0,1,5.65,3.41Z"></path><path class="cls-1" d="M14.88,53V43.56h1.65v.85h0A2.92,2.92,0,0,1,19,43.3v1.82a3.17,3.17,0,0,0-1.28.35,2.46,2.46,0,0,0-1,2.36V53Z"></path><path class="cls-1" d="M21.53,49a3.19,3.19,0,0,0,3.1,2.57A3,3,0,0,0,27.32,50h1.77a4.8,4.8,0,0,1-4.53,3.2,4.92,4.92,0,0,1-4.8-5,4.82,4.82,0,1,1,9.63-.12,8.66,8.66,0,0,1-.05.9Zm6.09-1.36a3.06,3.06,0,0,0-6.09,0Z"></path><path class="cls-1" d="M32.67,49a3.21,3.21,0,0,0,3.1,2.57A3,3,0,0,0,38.46,50h1.78a4.81,4.81,0,0,1-4.53,3.2,4.92,4.92,0,0,1-4.81-5,4.82,4.82,0,1,1,9.64-.12,8.66,8.66,0,0,1,0,.9Zm6.1-1.36a3.07,3.07,0,0,0-6.1,0Z"></path><path class="cls-1" d="M49.16,53V47.87c0-.74,0-2.95-2.35-2.95-1.48,0-2.49,1-2.49,2.93V53H42.55V43.56H44.2v1h0A3.34,3.34,0,0,1,47,43.3,3.82,3.82,0,0,1,50.33,45a4.56,4.56,0,0,1,.6,2.42V53Z"></path><path class="cls-1" d="M59.53,53l-4.16-5.84h0V53H53.5V40.39h3.9a4.44,4.44,0,0,1,3.35,1.06,4.15,4.15,0,0,1,1.16,3,3.62,3.62,0,0,1-3.61,3.86L61.83,53ZM55.34,46.9H56.6c.75,0,3.47,0,3.47-2.47,0-1.06-.71-2.35-2.79-2.35H55.34Z"></path><polygon class="cls-1" points="63.94 52.99 63.94 40.39 70.73 40.39 70.73 42.08 65.78 42.08 65.78 45.79 70.73 45.79 70.73 47.48 65.78 47.48 65.78 51.31 70.73 51.31 70.73 52.99 63.94 52.99"></polygon><path class="cls-1" d="M26.55,40.56a18.57,18.57,0,0,0,5.56-7C34.35,28.85,36,21,45.25,16.76c9.75-4.52,26.16.44,26.16.44a18.7,18.7,0,0,0-10,8.21C56.07,34.19,53.19,40,45.38,40.31c-4.61.18-7.67-4.3-7.67-4.3a41.35,41.35,0,0,1,7.89-9.76,41.74,41.74,0,0,1,11.13-7S51.41,18.71,44.27,24,35.58,34.14,33.5,36.71c-1.82,2.25-4,4.06-6.95,3.85"></path><polygon class="cls-1" points="50.21 11.9 55.51 9.01 37.66 0 13.64 13.67 13.64 19.39 37.8 5.63 50.21 11.9"></polygon><polygon class="cls-1" points="41.98 16.39 46.9 13.71 37.67 9.05 13.64 22.72 13.64 38.29 19.32 38.29 19.32 24.8 37.8 14.28 41.98 16.39"></polygon></g></g></svg> 