<?xml version="1.0" encoding="UTF-8"?> <svg xmlns="http://www.w3.org/2000/svg" viewBox="0 0 68.74 51.23"><defs><style>.cls-1{fill:none;stroke:#004028;stroke-linejoin:round;stroke-width:2px;}</style></defs><g id="Layer_2" data-name="Layer 2"><g id="TEXT"><path class="cls-1" d="M7,8.51A7.51,7.51,0,0,1,14.49,1H42.78a7.51,7.51,0,0,1,7.51,7.51V38H7V22.42"></path><line class="cls-1" x1="12.47" y1="38.04" x2="68.74" y2="38.04"></line><path class="cls-1" d="M28.63,12A3.94,3.94,0,1,0,32.57,16,3.95,3.95,0,0,0,28.63,12Z"></path><path class="cls-1" d="M27.78,22.42h1.72a8.12,8.12,0,0,1,8.12,8.12v3.64a0,0,0,0,1,0,0h-18a0,0,0,0,1,0,0V30.54A8.12,8.12,0,0,1,27.78,22.42Z"></path><line class="cls-1" x1="23.36" y1="34.18" x2="23.36" y2="30.39"></line><line class="cls-1" x1="33.91" y1="34.18" x2="33.91" y2="30.39"></line><line class="cls-1" x1="25.75" y1="25.35" x2="31.52" y2="25.35"></line><line class="cls-1" x1="28.44" y1="25.56" x2="28.44" y2="31.49"></line><path class="cls-1" d="M7,23.26a.54.54,0,0,1-.36-.14c-.81-.73-1.49-1.32-2.07-1.83C1,18.2,1,18,1,12.69c0-.7,0-1.48,0-2.38a.57.57,0,0,1,.19-.42.55.55,0,0,1,.44-.11,6.58,6.58,0,0,0,5-1,.53.53,0,0,1,.64,0c1.13,1,2.76,1.27,5,.95a.56.56,0,0,1,.43.13.53.53,0,0,1,.19.41c0,1.14,0,2.09,0,2.91C13,18,13,18.11,9.28,21.38c-.55.5-1.19,1.06-1.93,1.74A.56.56,0,0,1,7,23.26Z"></path><line class="cls-1" x1="50.29" y1="42.09" x2="50.29" y2="51.23"></line><line class="cls-1" x1="6.98" y1="42.09" x2="6.98" y2="51.23"></line><polyline class="cls-1" points="3.76 16.33 5.66 18.23 10.21 13.23"></polyline><line class="cls-1" x1="6.98" y1="42.09" x2="68.74" y2="42.09"></line></g></g></svg> 