<?xml version="1.0" encoding="UTF-8"?> <svg xmlns="http://www.w3.org/2000/svg" viewBox="0 0 91.13 68.04"><defs><style>.cls-1{fill:#004028;}</style></defs><g id="Layer_2" data-name="Layer 2"><g id="TEXT"><path class="cls-1" d="M76.13.59V0H52.68V.59h3.86l-9.1,24.72A8.38,8.38,0,0,1,46,23.16c-1-2-3.94-9.58-3.94-9.58S38.06,0,26.43,0H15V.68a12.63,12.63,0,0,1,8.76,4.41V29.87c-.65,5-2.75,7.66-5.79,7.66h-.69v.57h13.6v-.57h-1c-2.92,0-4.88-2.66-5.48-7.66V5.81A21.79,21.79,0,0,1,26,8.38C30,16.33,35.63,28,35.63,28S39.86,37.86,43.45,38L56.68,2.14V37.53h-5.5v.57H76.13v-.57H70.89V.59Z"></path><path class="cls-1" d="M8.63,54.63a4.56,4.56,0,0,1-2.79,1.2H5.5c-.54,0-1.25-.17-1.25-1.61V46.31c0-.7.23-1.22.62-1.39a1.74,1.74,0,0,1,.78-.22v-.21h0v-.22H.13v.43a1.62,1.62,0,0,1,.77.22c.39.17.62.69.62,1.39v7.94a1.5,1.5,0,0,1-.91,1.6A1.45,1.45,0,0,1,0,56v.43H10.19L11,52.46l-.41-.13A6,6,0,0,1,8.63,54.63Z"></path><path class="cls-1" d="M85.36,44.27v.43a2,2,0,0,1,.83.22,1.41,1.41,0,0,1,.69,1.39v8.06a1.41,1.41,0,0,1-.67,1.37,2.07,2.07,0,0,1-.85.24v.43h5.77V56a2,2,0,0,1-.85-.24,1.41,1.41,0,0,1-.69-1.37V46.31a1.41,1.41,0,0,1,.9-1.49,1.73,1.73,0,0,1,.64-.12v-.43Z"></path><path class="cls-1" d="M77.64,50a11.06,11.06,0,0,0-1.81-.77q-.56-.2-1.11-.36a15.67,15.67,0,0,1-1.67-.58,2,2,0,0,1-1.2-2.3,1.69,1.69,0,0,1,.76-1.23,2.81,2.81,0,0,1,2.23-.08,3.2,3.2,0,0,1,1.61,1.15,2.66,2.66,0,0,1,.42.82,4.68,4.68,0,0,1,.17.86l0,.11a.89.89,0,0,0,0,.11,1.91,1.91,0,0,1,0,.21l.39.16h0l.34-.52c.22-.35.43-.66.63-1,.35-.56.55-.87.48-1.18s-.39-.48-1-.84a6.28,6.28,0,0,0-2.36-.72,7,7,0,0,0-4.14.66,3.29,3.29,0,0,0-1.69,3.26,3.66,3.66,0,0,0,2,2.82,19.31,19.31,0,0,0,2.3.86l.9.31.42.14c.89.28,1.65.53,1.84,1.61.15.82-.25,2.16-1.21,2.36a5.87,5.87,0,0,1-1.23.12,3.16,3.16,0,0,1-3.09-2,5.39,5.39,0,0,1-.28-.83c0-.15-.09-.3-.14-.46l-.14-.44L69.39,55l.15.12a6.91,6.91,0,0,0,3.4,1.56,9.81,9.81,0,0,0,1.4.1,6.15,6.15,0,0,0,3.34-.91,3.54,3.54,0,0,0,1.61-3.07A3.24,3.24,0,0,0,77.64,50Z"></path><path class="cls-1" d="M46,46.23c-.06-.53-.12-1.12-.15-1.3s-.12-.55-.36-.6l-.16-.06c-.3-.1-.72-.24-1.17-.36a10.31,10.31,0,0,0-2.44-.32A7.55,7.55,0,0,0,37.06,45a6.41,6.41,0,0,0-2.77,5.36,6.3,6.3,0,0,0,2.21,4.87,8,8,0,0,0,5.07,1.69,10.79,10.79,0,0,0,3.19-.69l.4-.17c.23-.08.44-.17.66-.27s.26-.37.25-.59v-.08c0-.19-.06-4-.06-4.12v-.23l-.22,0-2.23,0-1.67,0h-.22v.76l.17,0c.74.16,1.42.37,1.46.81a19.36,19.36,0,0,1,0,2.3,1.84,1.84,0,0,1-.2.89,2.38,2.38,0,0,1-1.5.58,3.41,3.41,0,0,1-2.38-1,6.37,6.37,0,0,1-2-4.82,6.89,6.89,0,0,1,1.5-4.57,3.88,3.88,0,0,1,2.94-1.35,3.79,3.79,0,0,1,3.6,2.77l0,.1.06.17h.7S46,46.57,46,46.23Z"></path><path class="cls-1" d="M25.29,54.72a4.67,4.67,0,0,1-2.75,1.11h-.48c-.52,0-1.21-.16-1.21-1.48V49.12a4.94,4.94,0,0,1,.95.09,2.92,2.92,0,0,1,1,.48,5.83,5.83,0,0,1,.89.76,3.18,3.18,0,0,1,.55.66l.6,1-.62-3.59H20.85V44.89h.37a7.55,7.55,0,0,1,1.91.19,4.7,4.7,0,0,1,1.46.7A9,9,0,0,1,25.9,46.9a4.62,4.62,0,0,1,.8,1l.6,1-.8-4.58H16.59v.43h.14a1.41,1.41,0,0,1,.49.11.89.89,0,0,1,.41.21h0a1.35,1.35,0,0,1,.46,1.09v8.35a1.31,1.31,0,0,1-.69,1.27,2.09,2.09,0,0,1-.83.24v.21h0v.22H27l1-5-.83,1.42A9.61,9.61,0,0,1,25.29,54.72Z"></path><path class="cls-1" d="M63.36,54.9l-3.47-8.24h0l-1.06-2.75H56l1.16,2.89L54,54.4A2.67,2.67,0,0,1,52,56.24v.43h3.68l0-.43a1.23,1.23,0,0,1-1-.56,1.3,1.3,0,0,1,0-1.23l.95-2.39h3.5l1,2.67a1.1,1.1,0,0,1,0,1,1.5,1.5,0,0,1-1,.54l0,.22v.21h5.9v-.43A1.6,1.6,0,0,1,64,55.81,2.24,2.24,0,0,1,63.36,54.9Zm-7.43-3.48.87-2.22.66-1.52,1,2.39.51,1.35Z"></path><path class="cls-1" d="M18.24,67.11c.08-.11.14-.23.22-.34s.19-.15.28-.07a2.49,2.49,0,0,0,1.34.58.84.84,0,0,0,1-.78c0-.5-.44-.82-1.27-1.16s-1.52-.81-1.52-1.78A1.63,1.63,0,0,1,20.07,62a2.91,2.91,0,0,1,1.55.49.2.2,0,0,1,.05.29l-.21.32a.19.19,0,0,1-.29.08A2.6,2.6,0,0,0,20,62.77c-.7,0-.95.45-.95.76,0,.47.37.77,1.07,1,1,.4,1.8.86,1.8,1.88A1.71,1.71,0,0,1,20.09,68a2.74,2.74,0,0,1-1.8-.66A.18.18,0,0,1,18.24,67.11Z"></path><path class="cls-1" d="M25.12,62.25a.16.16,0,0,1,.16-.16h3.35a.16.16,0,0,1,.16.16v.47a.15.15,0,0,1-.16.16H26v1.71h2.23a.16.16,0,0,1,.16.16v.47a.16.16,0,0,1-.16.16H26v1.8h2.64a.15.15,0,0,1,.16.16v.46a.16.16,0,0,1-.16.16H25.28a.16.16,0,0,1-.16-.16Z"></path><path class="cls-1" d="M32.7,62.14a.18.18,0,0,1,.15-.13H33a.17.17,0,0,1,.14.09l1.75,4.28h0l1.75-4.28A.15.15,0,0,1,36.8,62h.13a.16.16,0,0,1,.15.13l1,5.62A.14.14,0,0,1,38,68h-.54a.17.17,0,0,1-.16-.12l-.62-3.74h0L35.11,68A.15.15,0,0,1,35,68h-.15a.16.16,0,0,1-.14-.09L33.16,64.1h0l-.6,3.74a.16.16,0,0,1-.15.12h-.55c-.11,0-.17-.08-.16-.2Z"></path><path class="cls-1" d="M41.35,62.25a.16.16,0,0,1,.16-.16h3.35a.16.16,0,0,1,.16.16v.47a.15.15,0,0,1-.16.16H42.22v1.71h2.23a.16.16,0,0,1,.16.16v.47a.16.16,0,0,1-.16.16H42.22v1.8h2.64a.15.15,0,0,1,.16.16v.46a.16.16,0,0,1-.16.16H41.51a.16.16,0,0,1-.16-.16Z"></path><path class="cls-1" d="M48.3,62.16a.16.16,0,0,1,.16-.15h.21l3.63,4.2h0v-4a.16.16,0,0,1,.16-.16H53a.16.16,0,0,1,.16.16v5.64A.16.16,0,0,1,53,68h-.21l-3.64-4.32h0V67.8A.16.16,0,0,1,49,68h-.52a.16.16,0,0,1-.16-.16Z"></path><path class="cls-1" d="M58,65.13l-2-2.79a.16.16,0,0,1,.13-.25h.62a.16.16,0,0,1,.13.08l1.52,2.14,1.51-2.14a.22.22,0,0,1,.14-.08h.63a.16.16,0,0,1,.13.25l-2,2.79V67.8a.17.17,0,0,1-.16.16H58.1A.16.16,0,0,1,58,67.8Z"></path><path class="cls-1" d="M63.62,62.25a.16.16,0,0,1,.15-.16h.56a.17.17,0,0,1,.16.16V67.8a.17.17,0,0,1-.16.16h-.56a.16.16,0,0,1-.15-.16Z"></path><path class="cls-1" d="M68.12,62.25a.17.17,0,0,1,.16-.16h.55a.16.16,0,0,1,.16.16v2.34h3.07V62.25a.16.16,0,0,1,.16-.16h.55a.17.17,0,0,1,.16.16V67.8a.17.17,0,0,1-.16.16h-.55a.16.16,0,0,1-.16-.16V65.38H69V67.8a.16.16,0,0,1-.16.16h-.55a.17.17,0,0,1-.16-.16Z"></path></g></g></svg> 