<?xml version="1.0" encoding="UTF-8"?> <svg xmlns="http://www.w3.org/2000/svg" viewBox="0 0 52.62 47.02"><defs><style>.cls-1{fill:#004028;}</style></defs><g id="Layer_2" data-name="Layer 2"><g id="TEXT"><path class="cls-1" d="M46.48,31.65a1,1,0,0,1-.73-.3,1,1,0,0,1-.31-.74,1,1,0,0,1,.3-.73,1.06,1.06,0,0,1,1.48,0,1,1,0,0,1,.3.73,1,1,0,0,1-.3.74A1,1,0,0,1,46.48,31.65Z"></path><path class="cls-1" d="M9.42,47H1a1,1,0,0,1-.84-.44,1,1,0,0,1-.15-.93l8.39-25.3a1,1,0,0,1,1-.72H43.19a1.05,1.05,0,0,1,1,.72l1.89,5.71a1,1,0,0,1-2,.65l-1.66-5H10.18L2.48,44.93H9.42a1,1,0,0,1,0,2.09Z"></path><path class="cls-1" d="M51.58,47H15.92a1,1,0,0,1,0-2.09H50.13L46.9,35.17a1,1,0,1,1,2-.66l3.7,11.14a1.06,1.06,0,0,1-1,1.37Z"></path><path class="cls-1" d="M28.42,33.05H5.67a1,1,0,0,1,0-2.08H27.38V10.76a1,1,0,0,1,2.09,0V32A1,1,0,0,1,28.42,33.05Z"></path><path class="cls-1" d="M42.32,47a1,1,0,0,1-1-1.05V39.12H21a1,1,0,0,1-1-1V32A1,1,0,0,1,22,32v5h20.3a1,1,0,0,1,1,1V46A1,1,0,0,1,42.32,47Z"></path><path class="cls-1" d="M28.42,11.8A5.9,5.9,0,1,1,34.3,5.9,5.9,5.9,0,0,1,28.42,11.8Zm0-9.72A3.82,3.82,0,1,0,32.21,5.9,3.81,3.81,0,0,0,28.42,2.08Z"></path></g></g></svg> 