<?xml version="1.0" encoding="UTF-8"?> <svg xmlns="http://www.w3.org/2000/svg" viewBox="0 0 70.92 52.77"><defs><style>.cls-1,.cls-2{fill:none;stroke:#004028;stroke-linejoin:round;stroke-width:2px;}.cls-2{stroke-dasharray:4.5 4.5;}</style></defs><g id="Layer_2" data-name="Layer 2"><g id="TEXT"><circle class="cls-1" cx="34.06" cy="32.49" r="5.62"></circle><line class="cls-1" x1="31.69" y1="23.68" x2="30.03" y2="17.29"></line><line class="cls-1" x1="38.08" y1="23.68" x2="40.92" y2="18.24"></line><line class="cls-1" x1="43.05" y1="28.41" x2="48.25" y2="26.99"></line><line class="cls-1" x1="25.78" y1="27.46" x2="21.04" y2="24.39"></line><line class="cls-1" x1="25.07" y1="33.38" x2="20.1" y2="34.8"></line><path class="cls-1" d="M29.79,42c.74,2,3.32,2.87,5.43,2.39s3.84-1.93,5.48-3.35,3.34-2.89,5.43-3.43,4.69.19,5.55,2.18"></path><path class="cls-1" d="M29.79,49.24c.74,2,3.32,2.88,5.43,2.4s3.84-1.93,5.48-3.35S44,45.4,46.13,44.86s4.69.19,5.55,2.18"></path><path class="cls-1" d="M35.46,1A34.46,34.46,0,0,0,1,35.46c0,.54,0,1.08,0,1.62"></path><path class="cls-1" d="M69.92,35.46c0-.77,0-1.53-.07-2.28"></path><path class="cls-2" d="M69.26,28.71A34.48,34.48,0,0,0,40,1.3"></path><path class="cls-1" d="M37.75,1.07C37,1,36.23,1,35.46,1"></path></g></g></svg> 