<?xml version="1.0" encoding="UTF-8"?> <svg xmlns="http://www.w3.org/2000/svg" viewBox="0 0 61.1 52.55"><defs><style>.cls-1{fill:none;stroke:#004028;stroke-linejoin:round;stroke-width:1.84px;}</style></defs><g id="Layer_2" data-name="Layer 2"><g id="TEXT"><line class="cls-1" x1="51.92" y1="12.42" x2="51.92" y2="46.39"></line><path class="cls-1" d="M60.18,20a8.26,8.26,0,1,1-16.52,0c0-4.56,3.7-19,8.26-19S60.18,15.39,60.18,20Z"></path><line class="cls-1" x1="56.05" y1="18.36" x2="52" y2="24.31"></line><line class="cls-1" x1="48.33" y1="16.9" x2="51.78" y2="21.68"></line><line class="cls-1" x1="9.17" y1="12.42" x2="9.17" y2="46.39"></line><path class="cls-1" d="M17.43,20A8.26,8.26,0,1,1,.92,20c0-4.56,3.69-19,8.25-19S17.43,15.39,17.43,20Z"></path><line class="cls-1" x1="13.31" y1="18.36" x2="9.26" y2="24.31"></line><line class="cls-1" x1="5.59" y1="16.9" x2="9.04" y2="21.68"></line><path class="cls-1" d="M30.41,31a40.82,40.82,0,0,0-4.5.2,2,2,0,0,0-1.19.69l-1.58,3.41-1.23,1a2.7,2.7,0,0,0-.5,1.19v2.77l.64,1.33v2.28s0,1,.6,1h1.53s.89,0,.94-.49V43"></path><path class="cls-1" d="M23.71,38.61a4,4,0,0,0,2.2.67"></path><path class="cls-1" d="M30.41,31a40.82,40.82,0,0,1,4.5.2,2,2,0,0,1,1.19.69l1.58,3.41,1.24,1a2.73,2.73,0,0,1,.49,1.19v2.77l-.64,1.33v2.28s0,1-.59,1H36.64s-.89,0-.94-.49V43"></path><path class="cls-1" d="M37.11,38.61a4,4,0,0,1-2.2.67"></path><path class="cls-1" d="M39.69,34.68l-1.57.74a68.77,68.77,0,0,1-15,0l-1.44-.74"></path><line class="cls-1" x1="24.56" y1="42.8" x2="36.27" y2="42.8"></line><line class="cls-1" x1="57.86" y1="47.2" x2="3.24" y2="46.92"></line><line class="cls-1" x1="57.86" y1="51.63" x2="3.24" y2="51.35"></line><line class="cls-1" x1="49.27" y1="36.3" x2="49.27" y2="46.92"></line><line class="cls-1" x1="11.89" y1="36.3" x2="11.89" y2="46.92"></line></g></g></svg> 